<svg width="40" height="40" viewBox="0 0 40 40" fill="none" xmlns="http://www.w3.org/2000/svg">
<g clip-path="url(#clip0_1359_2890)">
<path d="M29.35 0C31.0416 1.75 31.4 3.69167 30.425 5.825C30.3293 6.02979 30.2996 6.25963 30.3398 6.48328C30.3801 6.70693 30.4884 6.91353 30.65 7.075L32.8875 9.3125C32.9369 9.36069 32.9974 9.3961 33.0636 9.41568C33.1298 9.43527 33.1998 9.43842 33.2675 9.42488C33.3352 9.41134 33.3985 9.38151 33.4521 9.33797C33.5057 9.29444 33.5479 9.2385 33.575 9.175C33.9916 8.14167 34.7125 7.40417 35.7375 6.9625C35.8351 6.9194 35.9407 6.8976 36.0476 6.89851C36.1545 6.89942 36.2602 6.92302 36.358 6.96778C36.4558 7.01255 36.5434 7.07749 36.6152 7.1584C36.6871 7.23931 36.7415 7.33439 36.775 7.4375C37.45 9.52083 36.9083 11.2917 35.15 12.75C35.0084 12.8701 34.9038 13.0269 34.8484 13.2019C34.793 13.3768 34.7893 13.5627 34.8375 13.7375C35.5125 16.1208 35.775 18.3667 35.625 20.475C35.6155 20.6076 35.556 20.7317 35.4586 20.8222C35.3611 20.9127 35.233 20.9628 35.1 20.9625H34.7375C34.6882 20.9625 34.6395 20.9528 34.594 20.934C34.5485 20.9151 34.5071 20.8875 34.4723 20.8527C34.4375 20.8178 34.4099 20.7765 34.391 20.731C34.3722 20.6855 34.3625 20.6367 34.3625 20.5875V17.9375C34.3627 17.8476 34.336 17.7596 34.2858 17.685C34.2356 17.6104 34.1642 17.5525 34.0808 17.5189C33.9974 17.4853 33.9058 17.4774 33.8179 17.4963C33.7299 17.5152 33.6497 17.56 33.5875 17.625C32.7208 18.5417 32.3041 19.2083 32.3375 19.625C33.0208 28.0917 29.225 32.8917 20.95 34.025C20.6304 34.0744 20.3248 34.2078 20.0625 34.4125C18.4791 35.7208 17.4708 37.5833 17.0375 40H14.9125C11.7041 39.325 9.61248 37.5708 8.63748 34.7375C8.60312 34.6377 8.58951 34.5319 8.59745 34.4264C8.60539 34.3209 8.63472 34.2178 8.68369 34.1234C8.73267 34.0289 8.80029 33.945 8.88254 33.8766C8.96479 33.8081 9.05999 33.7566 9.16248 33.725C10.8041 33.2333 12.375 32.3917 13.875 31.2C13.953 31.1393 14.0124 31.0578 14.0461 30.9648C14.0799 30.8719 14.0867 30.7713 14.0658 30.6746C14.0449 30.5779 13.9972 30.4892 13.928 30.4185C13.8589 30.3478 13.7712 30.298 13.675 30.275C6.17498 28.425 2.58331 23.4208 2.89998 15.2625C2.90528 15.1472 2.93901 15.035 2.99818 14.9358C3.05734 14.8367 3.14011 14.7538 3.2391 14.6944C3.33809 14.635 3.45023 14.601 3.56554 14.5954C3.68084 14.5899 3.79574 14.6129 3.89998 14.6625C8.12498 16.725 11.5125 15.7125 17.2125 14.8C18.4625 14.5917 20.3875 15.2625 22.9875 16.8125C23.1509 16.9119 23.3459 16.9465 23.5352 16.9096C23.7244 16.8726 23.8944 16.7668 24.0125 16.6125C25.8625 14.1375 27.9875 12.1375 31.2 14.3375C32.3583 15.1292 33.025 15.5375 33.2 15.5625C33.2934 15.5793 33.3897 15.5705 33.4785 15.537C33.5673 15.5034 33.6454 15.4464 33.7044 15.3721C33.7634 15.2977 33.8011 15.2087 33.8136 15.1145C33.826 15.0204 33.8127 14.9247 33.775 14.8375L32.05 10.8125C32.0036 10.702 31.9345 10.6025 31.847 10.5207C31.7595 10.4388 31.6557 10.3763 31.5424 10.3373C31.4291 10.2984 31.3088 10.2838 31.1895 10.2946C31.0702 10.3054 30.9545 10.3413 30.85 10.4C29.175 11.325 27.3666 11.0917 25.425 9.7C25.2522 9.57468 25.1358 9.38643 25.1007 9.17593C25.0656 8.96542 25.1147 8.74957 25.2375 8.575C25.8875 7.65 26.8875 7.3125 28.2375 7.5625C28.3505 7.58428 28.4676 7.56535 28.5681 7.50906C28.6685 7.45278 28.7457 7.36277 28.7862 7.25498C28.8266 7.14718 28.8276 7.02856 28.7889 6.92012C28.7503 6.81168 28.6745 6.72042 28.575 6.6625L24.1875 4.125C24.1499 4.10363 24.1169 4.07528 24.0902 4.0416C24.0636 4.00793 24.0438 3.9696 24.0322 3.92887C24.0206 3.88813 24.0172 3.84581 24.0224 3.80437C24.0276 3.76292 24.0413 3.72319 24.0625 3.6875L24.3625 3.1625C24.4235 3.06162 24.5205 2.98808 24.6327 2.9577C24.7449 2.92731 24.8633 2.9425 24.9625 3L26.45 3.8625C26.5394 3.91635 26.642 3.94427 26.7463 3.94314C26.8507 3.94201 26.9527 3.91187 27.0409 3.8561C27.1291 3.80032 27.2 3.72111 27.2458 3.62731C27.2915 3.53352 27.3103 3.42885 27.3 3.325C27.1916 1.875 27.6708 0.766667 28.7375 0H29.35ZM22.5375 29.025C22.5374 29.0374 22.535 29.0488 22.5305 29.0577C22.526 29.0666 22.5198 29.0726 22.5125 29.075C20.4791 30.175 18.6416 30.7042 17 30.6625C16.7207 30.6547 16.4433 30.7115 16.1896 30.8286C15.9359 30.9457 15.7127 31.1199 15.5375 31.3375C14.5125 32.6042 12.9291 33.675 10.7875 34.55C10.6933 34.5879 10.6084 34.6458 10.5388 34.7197C10.4692 34.7936 10.4165 34.8818 10.3844 34.9781C10.3523 35.0745 10.3416 35.1766 10.3529 35.2775C10.3642 35.3784 10.3973 35.4757 10.45 35.5625C11.4833 37.2208 13.0458 38.2375 15.1375 38.6125C15.3303 38.6477 15.5297 38.6132 15.701 38.5149C15.8723 38.4167 16.0047 38.261 16.075 38.075C16.5583 36.7833 17.2125 35.6708 18.0375 34.7375C18.1767 34.5787 18.2536 34.3752 18.2536 34.1656C18.2536 33.9559 18.1767 33.7547 18.0375 33.6C17.7708 33.3 17.6625 33.0458 17.7125 32.8375C17.7488 32.6627 17.8506 32.5084 17.997 32.4061C18.1434 32.3039 18.3233 32.2614 18.5 32.2875C24.8333 33.2042 28.9916 30.6333 30.975 24.575C31.0165 24.4258 31.0375 24.2744 31.0375 24.125L31.0125 19.425C31.0125 19.3169 31.0209 19.2123 31.0375 19.1125C31.1708 18.4875 31.4833 17.9167 31.975 17.4C32.0406 17.332 32.0906 17.2506 32.1215 17.1613C32.1525 17.072 32.1636 16.9771 32.154 16.8831C32.1445 16.7891 32.1146 16.6983 32.0664 16.617C32.0182 16.5357 31.9529 16.4659 31.875 16.4125C28.6 14.0875 27.5125 14.25 25.2 17.3125C25.0817 17.4655 25.0229 17.6562 25.0344 17.8492C25.0459 18.0423 25.1269 18.2246 25.2625 18.3625L26.55 19.65C26.6355 19.7366 26.6834 19.8533 26.6834 19.975C26.6834 20.0967 26.6355 20.2134 26.55 20.3L26.2625 20.5875C26.2252 20.6261 26.1805 20.6567 26.1311 20.6777C26.0817 20.6986 26.0286 20.7094 25.975 20.7094C25.9213 20.7094 25.8682 20.6986 25.8188 20.6777C25.7695 20.6567 25.7248 20.6261 25.6875 20.5875C22.525 17.375 18.95 15.45 14.175 16.5875C10.6166 17.4375 7.57081 17.45 5.03748 16.625C4.8819 16.5759 4.71406 16.5827 4.56296 16.6442C4.41185 16.7057 4.28698 16.818 4.2099 16.9618C4.13282 17.1056 4.10838 17.2718 4.1408 17.4317C4.17323 17.5916 4.26048 17.7351 4.38748 17.8375C5.11248 18.4042 6.52915 18.7167 8.63748 18.775C8.72489 18.7782 8.80762 18.8165 8.86825 18.8818C8.92887 18.9471 8.96266 19.0343 8.96248 19.125V19.5C8.96248 19.6094 8.92034 19.7143 8.84532 19.7917C8.77031 19.869 8.66857 19.9125 8.56248 19.9125H5.03748C4.95868 19.9129 4.88136 19.934 4.81325 19.9736C4.74515 20.0133 4.68866 20.0701 4.64943 20.1385C4.61019 20.2068 4.58959 20.2842 4.58969 20.3631C4.58979 20.4419 4.61058 20.5193 4.64998 20.5875L4.97498 21.15C5.05516 21.2838 5.16875 21.3945 5.30462 21.4712C5.44049 21.5479 5.59396 21.588 5.74998 21.5875H8.99998C9.11649 21.5939 9.22733 21.6398 9.31418 21.7177C9.40104 21.7957 9.4587 21.9009 9.47765 22.016C9.49659 22.1312 9.47569 22.2493 9.41838 22.3509C9.36107 22.4526 9.2708 22.5316 9.16248 22.575C8.22081 22.9 7.33331 23.0292 6.49998 22.9625C6.41848 22.9572 6.33677 22.9715 6.262 23.0041C6.18723 23.0367 6.12169 23.0866 6.07111 23.1495C6.02053 23.2124 5.98646 23.2864 5.97188 23.3649C5.9573 23.4435 5.96266 23.5242 5.98748 23.6L6.08748 23.875C6.16966 24.1239 6.32249 24.3431 6.52695 24.5054C6.73142 24.6676 6.97851 24.7657 7.23748 24.7875C7.95415 24.8542 8.71665 24.7 9.52498 24.325C9.63388 24.2734 9.75774 24.264 9.87147 24.2988C9.98519 24.3337 10.0803 24.41 10.1375 24.5125L10.3125 24.8125C10.3454 24.8678 10.3656 24.9296 10.372 24.9938C10.3783 25.058 10.3706 25.123 10.3493 25.1846C10.3279 25.2462 10.2935 25.3029 10.2484 25.3508C10.2032 25.3988 10.1484 25.4368 10.0875 25.4625C9.52915 25.6792 9.23331 25.8 9.19998 25.825C9.03623 25.959 8.92575 26.1471 8.88846 26.3554C8.85118 26.5637 8.88954 26.7785 8.99662 26.961C9.10371 27.1435 9.27248 27.2817 9.4725 27.3507C9.67251 27.4198 9.89062 27.4151 10.0875 27.3375L11.8 26.6625C11.9022 26.6195 12.015 26.6085 12.1236 26.6308C12.2323 26.653 12.3316 26.7076 12.4087 26.7874C12.4857 26.8671 12.5368 26.9683 12.5554 27.0776C12.5739 27.187 12.5589 27.2993 12.5125 27.4C12.4958 27.4417 12.4708 27.4917 12.4375 27.55C12.3808 27.6645 12.3503 27.7902 12.3482 27.9178C12.3461 28.0454 12.3724 28.1715 12.4253 28.2868C12.4781 28.4021 12.5561 28.5037 12.6535 28.5839C12.7508 28.664 12.865 28.7208 12.9875 28.75C13.7625 28.9417 14.4291 28.7542 14.9875 28.1875C15.0575 28.1158 15.1449 28.0637 15.2413 28.0362C15.3376 28.0087 15.4394 28.0069 15.5367 28.0309C15.6339 28.0549 15.7232 28.1039 15.7957 28.173C15.8682 28.2421 15.9214 28.329 15.95 28.425C15.9583 28.4417 15.9625 28.4708 15.9625 28.5125C15.9689 28.7413 16.0622 28.9588 16.2229 29.1195C16.3836 29.2802 16.5993 29.3718 16.825 29.375C18.4416 29.4083 20.1833 28.8833 22.05 27.8C22.0989 27.7717 22.1544 27.7567 22.2109 27.7564C22.2674 27.7561 22.323 27.7706 22.3722 27.7984C22.4214 27.8261 22.4626 27.8662 22.4916 27.9148C22.5205 27.9633 22.5364 28.0185 22.5375 28.075V29.025Z" fill="#2277FF"/>
<circle cx="28.125" cy="16.875" r="0.625" fill="#2277FF"/>
</g>
<defs>
<clipPath id="clip0_1359_2890">
<rect width="40" height="40" fill="white"/>
</clipPath>
</defs>
</svg>
