<svg width="24" height="24" viewBox="0 0 24 24" fill="none" xmlns="http://www.w3.org/2000/svg">
<path d="M3.3525 12.3971L10.1025 19.1471C10.2091 19.2465 10.3502 19.3006 10.4959 19.298C10.6416 19.2955 10.7807 19.2364 10.8837 19.1334C10.9868 19.0303 11.0458 18.8913 11.0484 18.7455C11.051 18.5998 10.9969 18.4588 10.8975 18.3521L5.10844 12.5621H20.25C20.3992 12.5621 20.5423 12.5029 20.6477 12.3974C20.7532 12.2919 20.8125 12.1488 20.8125 11.9996C20.8125 11.8505 20.7532 11.7074 20.6477 11.6019C20.5423 11.4964 20.3992 11.4371 20.25 11.4371H5.10844L10.8975 5.64714C10.9969 5.54051 11.051 5.39947 11.0484 5.25375C11.0458 5.10802 10.9868 4.96898 10.8837 4.86592C10.7807 4.76286 10.6416 4.70383 10.4959 4.70126C10.3502 4.69869 10.2091 4.75278 10.1025 4.85214L3.3525 11.6021C3.24716 11.7076 3.188 11.8506 3.188 11.9996C3.188 12.1487 3.24716 12.2917 3.3525 12.3971Z" fill="black"/>
</svg>
