<svg width="24" height="24" viewBox="0 0 24 24" fill="none" xmlns="http://www.w3.org/2000/svg">
<path d="M19.2008 7.7056L11.7038 15.0136L4.20685 7.7056C4.07291 7.57475 3.89309 7.5015 3.70585 7.5015C3.5186 7.5015 3.33879 7.57475 3.20485 7.7056C3.13999 7.76914 3.08847 7.84499 3.05329 7.9287C3.01812 8.01241 3 8.1023 3 8.1931C3 8.2839 3.01812 8.37378 3.05329 8.45749C3.08847 8.5412 3.13999 8.61705 3.20485 8.6806L11.1803 16.4566C11.3204 16.5931 11.5083 16.6695 11.7038 16.6695C11.8994 16.6695 12.0873 16.5931 12.2274 16.4566L20.2029 8.6821C20.2682 8.6185 20.3201 8.54247 20.3555 8.45848C20.391 8.3745 20.4092 8.28426 20.4092 8.1931C20.4092 8.10194 20.391 8.0117 20.3555 7.92771C20.3201 7.84373 20.2682 7.76769 20.2029 7.7041C20.0689 7.57325 19.8891 7.5 19.7018 7.5C19.5146 7.5 19.3348 7.57325 19.2008 7.7041V7.7056Z" fill="#868E96"/>
</svg>
