<svg width="24" height="24" viewBox="0 0 24 24" fill="none" xmlns="http://www.w3.org/2000/svg">
<path d="M19.497 7.989L12 15.297L4.50299 7.989C4.36905 7.85815 4.18924 7.7849 4.00199 7.7849C3.81475 7.7849 3.63493 7.85815 3.50099 7.989C3.43614 8.05255 3.38461 8.12839 3.34944 8.2121C3.31426 8.29581 3.29614 8.3857 3.29614 8.4765C3.29614 8.5673 3.31426 8.65719 3.34944 8.74089C3.38461 8.8246 3.43614 8.90045 3.50099 8.964L11.4765 16.74C11.6166 16.8765 11.8044 16.9529 12 16.9529C12.1956 16.9529 12.3834 16.8765 12.5235 16.74L20.499 8.9655C20.5643 8.90191 20.6162 8.82587 20.6517 8.74188C20.6871 8.6579 20.7054 8.56766 20.7054 8.4765C20.7054 8.38534 20.6871 8.2951 20.6517 8.21111C20.6162 8.12713 20.5643 8.05109 20.499 7.9875C20.3651 7.85665 20.1852 7.7834 19.998 7.7834C19.8107 7.7834 19.6309 7.85665 19.497 7.9875V7.989Z" fill="black"/>
</svg>
