<svg width="20" height="20" viewBox="0 0 20 20" fill="none" xmlns="http://www.w3.org/2000/svg">
<path d="M17.9425 6.06754L7.94254 16.0675C7.88449 16.1256 7.81556 16.1717 7.73969 16.2032C7.66381 16.2347 7.58248 16.2508 7.50035 16.2508C7.41821 16.2508 7.33688 16.2347 7.26101 16.2032C7.18514 16.1717 7.11621 16.1256 7.05816 16.0675L2.68316 11.6925C2.56588 11.5753 2.5 11.4162 2.5 11.2503C2.5 11.0845 2.56588 10.9254 2.68316 10.8082C2.80044 10.6909 2.9595 10.625 3.12535 10.625C3.2912 10.625 3.45026 10.6909 3.56753 10.8082L7.50035 14.7418L17.0582 5.18316C17.1754 5.06588 17.3345 5 17.5003 5C17.6662 5 17.8253 5.06588 17.9425 5.18316C18.0598 5.30044 18.1257 5.4595 18.1257 5.62535C18.1257 5.7912 18.0598 5.95026 17.9425 6.06754Z" fill="black"/>
</svg>
