<svg width="120" height="120" viewBox="0 0 120 120" fill="none" xmlns="http://www.w3.org/2000/svg">
<g clip-path="url(#clip0_1453_4153)">
<path d="M25.5281 94.4719C21.2156 90.1594 24.075 81.0984 21.8813 75.7922C19.6031 70.3125 11.25 65.8594 11.25 60C11.25 54.1406 19.6031 49.6875 21.8813 44.2078C24.075 38.9062 21.2156 29.8406 25.5281 25.5281C29.8406 21.2156 38.9062 24.075 44.2078 21.8813C49.7109 19.6031 54.1406 11.25 60 11.25C65.8594 11.25 70.3125 19.6031 75.7922 21.8813C81.0984 24.075 90.1594 21.2156 94.4719 25.5281C98.7844 29.8406 95.925 38.9016 98.1188 44.2078C100.397 49.7109 108.75 54.1406 108.75 60C108.75 65.8594 100.397 70.3125 98.1188 75.7922C95.925 81.0984 98.7844 90.1594 94.4719 94.4719C90.1594 98.7844 81.0984 95.925 75.7922 98.1188C70.3125 100.397 65.8594 108.75 60 108.75C54.1406 108.75 49.6875 100.397 44.2078 98.1188C38.9062 95.925 29.8406 98.7844 25.5281 94.4719Z" stroke="#2277FF" stroke-width="1.5" stroke-linecap="round" stroke-linejoin="round"/>
<path opacity="0.2" d="M34.6442 96.8558C30.2212 92.4327 33.1538 83.1394 30.9038 77.6971C28.5673 72.0769 20 67.5096 20 61.5C20 55.4904 28.5673 50.9231 30.9038 45.3029C33.1538 39.8654 30.2212 30.5673 34.6442 26.1442C39.0673 21.7212 48.3654 24.6538 53.8029 22.4038C59.4471 20.0673 63.9904 11.5 70 11.5C76.0096 11.5 80.5769 20.0673 86.1971 22.4038C91.6394 24.6538 100.933 21.7212 105.356 26.1442C109.779 30.5673 106.846 39.8606 109.096 45.3029C111.433 50.9471 120 55.4904 120 61.5C120 67.5096 111.433 72.0769 109.096 77.6971C106.846 83.1394 109.779 92.4327 105.356 96.8558C100.933 101.279 91.6394 98.3462 86.1971 100.596C80.5769 102.933 76.0096 111.5 70 111.5C63.9904 111.5 59.4231 102.933 53.8029 100.596C48.3654 98.3462 39.0673 101.279 34.6442 96.8558Z" fill="#2277FF"/>
<path d="M41.25 63.75L52.5 75L78.75 48.75" stroke="#2277FF" stroke-width="1.5" stroke-linecap="round" stroke-linejoin="round"/>
</g>
<defs>
<clipPath id="clip0_1453_4153">
<rect width="120" height="120" fill="white"/>
</clipPath>
</defs>
</svg>
