<svg width="120" height="120" viewBox="0 0 120 120" fill="none" xmlns="http://www.w3.org/2000/svg">
<g clip-path="url(#clip0_2036_8980)">
<path d="M31.2734 88.7266C27.6797 85.1328 30.0625 77.582 28.2344 73.1602C26.3359 68.5938 19.375 64.8828 19.375 60C19.375 55.1172 26.3359 51.4062 28.2344 46.8398C30.0625 42.4219 27.6797 34.8672 31.2734 31.2734C34.8672 27.6797 42.4219 30.0625 46.8398 28.2344C51.4258 26.3359 55.1172 19.375 60 19.375C64.8828 19.375 68.5938 26.3359 73.1602 28.2344C77.582 30.0625 85.1328 27.6797 88.7266 31.2734C92.3203 34.8672 89.9375 42.418 91.7656 46.8398C93.6641 51.4258 100.625 55.1172 100.625 60C100.625 64.8828 93.6641 68.5938 91.7656 73.1602C89.9375 77.582 92.3203 85.1328 88.7266 88.7266C85.1328 92.3203 77.582 89.9375 73.1602 91.7656C68.5938 93.6641 64.8828 100.625 60 100.625C55.1172 100.625 51.4062 93.6641 46.8398 91.7656C42.4219 89.9375 34.8672 92.3203 31.2734 88.7266Z" stroke="#2277FF" stroke-width="5" stroke-linecap="round" stroke-linejoin="round"/>
<path opacity="0.2" d="M38.87 94.4633C35.1841 90.7774 37.628 83.033 35.753 78.4978C33.8059 73.8143 26.6665 70.0082 26.6665 65.0002C26.6665 59.9922 33.8059 56.1861 35.753 51.5026C37.628 46.9713 35.1841 39.2229 38.87 35.537C42.5559 31.8511 50.3043 34.295 54.8356 32.42C59.5391 30.4729 63.3252 23.3335 68.3332 23.3335C73.3412 23.3335 77.1473 30.4729 81.8308 32.42C86.366 34.295 94.1104 31.8511 97.7963 35.537C101.482 39.2229 99.0383 46.9673 100.913 51.5026C102.86 56.2061 110 59.9922 110 65.0002C110 70.0082 102.86 73.8143 100.913 78.4978C99.0383 83.033 101.482 90.7774 97.7963 94.4633C94.1104 98.1492 86.366 95.7053 81.8308 97.5803C77.1473 99.5274 73.3412 106.667 68.3332 106.667C63.3252 106.667 59.5191 99.5274 54.8356 97.5803C50.3043 95.7053 42.5559 98.1492 38.87 94.4633Z" fill="#2277FF"/>
<path d="M44.375 63.125L53.75 72.5L75.625 50.625" stroke="#2277FF" stroke-width="5" stroke-linecap="round" stroke-linejoin="round"/>
</g>
<defs>
<clipPath id="clip0_2036_8980">
<rect width="100" height="100" fill="white" transform="translate(10 10)"/>
</clipPath>
</defs>
</svg>
