<svg width="120" height="120" viewBox="0 0 120 120" fill="none" xmlns="http://www.w3.org/2000/svg">
<g clip-path="url(#clip0_1453_6028)">
<path d="M11.25 105H108.75" stroke="#2277FF" stroke-width="1.5" stroke-linecap="round" stroke-linejoin="round"/>
<path d="M26.25 105V18.75C26.25 17.7554 26.6451 16.8016 27.3484 16.0984C28.0516 15.3951 29.0054 15 30 15H90C90.9946 15 91.9484 15.3951 92.6517 16.0984C93.3549 16.8016 93.75 17.7554 93.75 18.75V105" stroke="#2277FF" stroke-width="1.5" stroke-linecap="round" stroke-linejoin="round"/>
<path d="M61.875 67.5C64.9816 67.5 67.5 64.9816 67.5 61.875C67.5 58.7684 64.9816 56.25 61.875 56.25C58.7684 56.25 56.25 58.7684 56.25 61.875C56.25 64.9816 58.7684 67.5 61.875 67.5Z" fill="#2277FF"/>
<path d="M78.75 15V105" stroke="#2277FF" stroke-width="1.5" stroke-linecap="round" stroke-linejoin="round"/>
</g>
<defs>
<clipPath id="clip0_1453_6028">
<rect width="120" height="120" fill="white"/>
</clipPath>
</defs>
</svg>
