<svg width="24" height="24" viewBox="0 0 24 24" fill="none" xmlns="http://www.w3.org/2000/svg">
<path d="M16.0112 19.4967L8.7032 11.9997L16.0112 4.50275C16.142 4.36881 16.2153 4.18899 16.2153 4.00175C16.2153 3.8145 16.142 3.63469 16.0112 3.50075C15.9477 3.43589 15.8718 3.38437 15.7881 3.34919C15.7044 3.31402 15.6145 3.2959 15.5237 3.2959C15.4329 3.2959 15.343 3.31402 15.2593 3.34919C15.1756 3.38437 15.0997 3.43589 15.0362 3.50075L7.2602 11.4762C7.12368 11.6163 7.04727 11.8042 7.04727 11.9997C7.04727 12.1953 7.12368 12.3832 7.2602 12.5232L15.0347 20.4987C15.0983 20.5641 15.1743 20.616 15.2583 20.6514C15.3423 20.6869 15.4325 20.7051 15.5237 20.7051C15.6149 20.7051 15.7051 20.6869 15.7891 20.6514C15.8731 20.616 15.9491 20.5641 16.0127 20.4987C16.1435 20.3648 16.2168 20.185 16.2168 19.9977C16.2168 19.8105 16.1435 19.6307 16.0127 19.4967H16.0112Z" fill="black"/>
</svg>
