<svg width="24" height="24" viewBox="0 0 24 24" fill="none" xmlns="http://www.w3.org/2000/svg">
<path d="M22.0613 16.8749L18.6637 13.4765L15.2456 2.19931C15.1485 1.87819 14.9736 1.58599 14.7366 1.34859C14.4996 1.11119 14.2076 0.935908 13.8866 0.838283C13.5657 0.740658 13.2256 0.723698 12.8965 0.788906C12.5674 0.854114 12.2595 0.999477 12 1.21212C11.7405 0.999477 11.4326 0.854114 11.1035 0.788906C10.7744 0.723698 10.4343 0.740658 10.1133 0.838283C9.79238 0.935908 9.50044 1.11119 9.2634 1.34859C9.02635 1.58599 8.85152 1.87819 8.75437 2.19931L5.33625 13.4774L1.93875 16.8749C1.65766 17.1562 1.49976 17.5376 1.49976 17.9352C1.49976 18.3329 1.65766 18.7143 1.93875 18.9956L5.00344 22.0602C5.14273 22.1996 5.3081 22.3101 5.49011 22.3855C5.67212 22.4609 5.86721 22.4997 6.06422 22.4997C6.26123 22.4997 6.45631 22.4609 6.63832 22.3855C6.82033 22.3101 6.98571 22.1996 7.125 22.0602L11.6512 17.5312C11.7767 17.4054 11.8933 17.271 12 17.129C12.1067 17.271 12.2233 17.4054 12.3487 17.5312L16.875 22.0612C17.0143 22.2005 17.1797 22.311 17.3617 22.3864C17.5437 22.4618 17.7388 22.5006 17.9358 22.5006C18.1328 22.5006 18.3279 22.4618 18.5099 22.3864C18.6919 22.311 18.8573 22.2005 18.9966 22.0612L22.0613 18.9965C22.2006 18.8572 22.3111 18.6918 22.3865 18.5098C22.4619 18.3278 22.5007 18.1327 22.5007 17.9357C22.5007 17.7387 22.4619 17.5436 22.3865 17.3616C22.3111 17.1796 22.2006 17.0142 22.0613 16.8749ZM6.06375 20.9999L3 17.9362L4.18969 16.7465L7.25437 19.8112L6.06375 20.9999ZM11.25 14.8827C11.2515 15.1786 11.1943 15.4718 11.0816 15.7454C10.969 16.019 10.8031 16.2675 10.5937 16.4765L8.31375 18.7499L5.25 15.6862L6.52969 14.4056C6.61702 14.3182 6.68142 14.2107 6.71719 14.0924L10.1859 2.63431C10.2211 2.50681 10.3017 2.39658 10.4126 2.32439C10.5234 2.2522 10.6568 2.22305 10.7876 2.24241C10.9185 2.26178 11.0377 2.32833 11.1229 2.42953C11.208 2.53073 11.2533 2.65958 11.25 2.79181V14.8827ZM13.4062 16.4765C13.1969 16.2675 13.031 16.019 12.9184 15.7454C12.8057 15.4718 12.7485 15.1786 12.75 14.8827V2.78899C12.75 2.6591 12.7967 2.53354 12.8816 2.43519C12.9664 2.33683 13.0838 2.27223 13.2123 2.25314C13.3407 2.23406 13.4718 2.26176 13.5816 2.33121C13.6913 2.40065 13.7725 2.50722 13.8103 2.63149L17.2791 14.0896C17.3148 14.2078 17.3792 14.3154 17.4666 14.4027L18.825 15.7612L15.6937 18.7612L13.4062 16.4765ZM17.9362 20.9999L16.7587 19.8215L19.8891 16.8215L21 17.9362L17.9362 20.9999Z" fill="#868E96"/>
</svg>
