<svg width="24" height="24" viewBox="0 0 24 24" fill="none" xmlns="http://www.w3.org/2000/svg">
<g clip-path="url(#clip0_1900_4361)">
<path d="M12 15.75C14.0711 15.75 15.75 14.0711 15.75 12C15.75 9.92893 14.0711 8.25 12 8.25C9.92893 8.25 8.25 9.92893 8.25 12C8.25 14.0711 9.92893 15.75 12 15.75Z" stroke="#2277FF" stroke-width="1.5" stroke-linecap="round" stroke-linejoin="round"/>
<path d="M3.88406 16.6964C3.46966 15.9826 3.15219 15.2168 2.94 14.4192L4.51313 12.4504C4.49532 12.1494 4.49532 11.8477 4.51313 11.5467L2.94094 9.57793C3.15276 8.78019 3.46959 8.01412 3.88313 7.2998L6.38719 7.01855C6.58715 6.79327 6.80034 6.58008 7.02563 6.38012L7.30688 3.87699C8.02016 3.46543 8.78498 3.15048 9.58125 2.94043L11.55 4.51355C11.851 4.49574 12.1528 4.49574 12.4538 4.51355L14.4225 2.94137C15.2202 3.15319 15.9863 3.47002 16.7006 3.88355L16.9819 6.38762C17.2072 6.58758 17.4204 6.80077 17.6203 7.02605L20.1234 7.3073C20.5378 8.02108 20.8553 8.78688 21.0675 9.58449L19.4944 11.5532C19.5122 11.8542 19.5122 12.156 19.4944 12.457L21.0666 14.4257C20.8562 15.2232 20.541 15.9893 20.1291 16.7039L17.625 16.9851C17.425 17.2104 17.2119 17.4236 16.9866 17.6236L16.7053 20.1267C15.9915 20.5411 15.2257 20.8586 14.4281 21.0707L12.4594 19.4976C12.1584 19.5154 11.8566 19.5154 11.5556 19.4976L9.58688 21.0698C8.78937 20.8595 8.02331 20.5442 7.30875 20.1323L7.0275 17.6282C6.80222 17.4283 6.58903 17.2151 6.38907 16.9898L3.88406 16.6964Z" stroke="#2277FF" stroke-width="1.5" stroke-linecap="round" stroke-linejoin="round"/>
</g>
<defs>
<clipPath id="clip0_1900_4361">
<rect width="24" height="24" fill="white"/>
</clipPath>
</defs>
</svg>
