<svg width="15" height="10" viewBox="0 0 15 10" fill="none" xmlns="http://www.w3.org/2000/svg">
<path d="M14.9569 4.7975C14.935 4.74813 14.4056 3.57375 13.2287 2.39687C11.6606 0.82875 9.67999 0 7.49999 0C5.31999 0 3.33937 0.82875 1.77124 2.39687C0.594369 3.57375 0.062494 4.75 0.043119 4.7975C0.0146897 4.86144 0 4.93064 0 5.00062C0 5.0706 0.0146897 5.1398 0.043119 5.20375C0.064994 5.25312 0.594369 6.42688 1.77124 7.60375C3.33937 9.17125 5.31999 10 7.49999 10C9.67999 10 11.6606 9.17125 13.2287 7.60375C14.4056 6.42688 14.935 5.25312 14.9569 5.20375C14.9853 5.1398 15 5.0706 15 5.00062C15 4.93064 14.9853 4.86144 14.9569 4.7975ZM7.49999 9C5.57624 9 3.89562 8.30062 2.50437 6.92188C1.93352 6.35418 1.44786 5.70685 1.06249 5C1.44776 4.29309 1.93343 3.64574 2.50437 3.07812C3.89562 1.69938 5.57624 1 7.49999 1C9.42374 1 11.1044 1.69938 12.4956 3.07812C13.0676 3.6456 13.5543 4.29295 13.9406 5C13.49 5.84125 11.5269 9 7.49999 9ZM7.49999 2C6.90665 2 6.32663 2.17595 5.83328 2.50559C5.33994 2.83524 4.95542 3.30377 4.72836 3.85195C4.50129 4.40013 4.44188 5.00333 4.55764 5.58527C4.67339 6.16721 4.95912 6.70176 5.37867 7.12132C5.79823 7.54088 6.33278 7.8266 6.91472 7.94236C7.49667 8.05811 8.09987 7.9987 8.64804 7.77164C9.19622 7.54458 9.66476 7.16006 9.9944 6.66671C10.324 6.17336 10.5 5.59334 10.5 5C10.4992 4.2046 10.1828 3.44202 9.6204 2.87959C9.05797 2.31716 8.29539 2.00083 7.49999 2ZM7.49999 7C7.10443 7 6.71775 6.8827 6.38885 6.66294C6.05996 6.44318 5.80361 6.13082 5.65224 5.76537C5.50086 5.39991 5.46125 4.99778 5.53842 4.60982C5.61559 4.22186 5.80608 3.86549 6.08578 3.58579C6.36549 3.30608 6.72185 3.1156 7.10981 3.03843C7.49778 2.96126 7.89991 3.00087 8.26536 3.15224C8.63081 3.30362 8.94317 3.55996 9.16293 3.88886C9.3827 4.21776 9.49999 4.60444 9.49999 5C9.49999 5.53043 9.28928 6.03914 8.91421 6.41421C8.53913 6.78929 8.03043 7 7.49999 7Z" fill="#FF352B"/>
</svg>
