<svg width="120" height="120" viewBox="0 0 120 120" fill="none" xmlns="http://www.w3.org/2000/svg">
<g clip-path="url(#clip0_1678_5678)">
<path d="M25.5281 94.4719C21.2156 90.1594 24.075 81.0984 21.8813 75.7922C19.6031 70.3125 11.25 65.8594 11.25 60C11.25 54.1406 19.6031 49.6875 21.8813 44.2078C24.075 38.9062 21.2156 29.8406 25.5281 25.5281C29.8406 21.2156 38.9062 24.075 44.2078 21.8813C49.7109 19.6031 54.1406 11.25 60 11.25C65.8594 11.25 70.3125 19.6031 75.7922 21.8813C81.0984 24.075 90.1594 21.2156 94.4719 25.5281C98.7844 29.8406 95.925 38.9016 98.1188 44.2078C100.397 49.7109 108.75 54.1406 108.75 60C108.75 65.8594 100.397 70.3125 98.1188 75.7922C95.925 81.0984 98.7844 90.1594 94.4719 94.4719C90.1594 98.7844 81.0984 95.925 75.7922 98.1188C70.3125 100.397 65.8594 108.75 60 108.75C54.1406 108.75 49.6875 100.397 44.2078 98.1188C38.9062 95.925 29.8406 98.7844 25.5281 94.4719Z" stroke="#2277FF" stroke-width="7.5" stroke-linecap="round" stroke-linejoin="round"/>
<path opacity="0.2" d="M34.6442 102.856C30.2212 98.4327 33.1538 89.1394 30.9038 83.6971C28.5673 78.0769 20 73.5096 20 67.5C20 61.4904 28.5673 56.9231 30.9038 51.3029C33.1538 45.8654 30.2212 36.5673 34.6442 32.1442C39.0673 27.7212 48.3654 30.6538 53.8029 28.4038C59.4471 26.0673 63.9904 17.5 70 17.5C76.0096 17.5 80.5769 26.0673 86.1971 28.4038C91.6394 30.6538 100.933 27.7212 105.356 32.1442C109.779 36.5673 106.846 45.8606 109.096 51.3029C111.433 56.9471 120 61.4904 120 67.5C120 73.5096 111.433 78.0769 109.096 83.6971C106.846 89.1394 109.779 98.4327 105.356 102.856C100.933 107.279 91.6394 104.346 86.1971 106.596C80.5769 108.933 76.0096 117.5 70 117.5C63.9904 117.5 59.4231 108.933 53.8029 106.596C48.3654 104.346 39.0673 107.279 34.6442 102.856Z" fill="#2277FF"/>
<path d="M41.25 63.75L52.5 75L78.75 48.75" stroke="#2277FF" stroke-width="7.5" stroke-linecap="round" stroke-linejoin="round"/>
</g>
<defs>
<clipPath id="clip0_1678_5678">
<rect width="120" height="120" fill="white"/>
</clipPath>
</defs>
</svg>
