<svg width="18" height="15" viewBox="0 0 18 15" fill="none" xmlns="http://www.w3.org/2000/svg">
<path d="M17.46 7.69597L10.71 14.446C10.6034 14.5453 10.4623 14.5994 10.3166 14.5969C10.1709 14.5943 10.0318 14.5352 9.92878 14.4322C9.82572 14.3291 9.76669 14.1901 9.76412 14.0444C9.76155 13.8986 9.81564 13.7576 9.915 13.651L15.7041 7.86097H0.5625C0.413316 7.86097 0.270242 7.80171 0.164752 7.69622C0.0592631 7.59073 0 7.44765 0 7.29847C0 7.14928 0.0592631 7.00621 0.164752 6.90072C0.270242 6.79523 0.413316 6.73597 0.5625 6.73597H15.7041L9.915 0.945969C9.81564 0.839338 9.76155 0.698303 9.76412 0.552577C9.76669 0.406851 9.82572 0.267812 9.92878 0.164752C10.0318 0.0616926 10.1709 0.0026588 10.3166 8.76355e-05C10.4623 -0.00248353 10.6034 0.0516087 10.71 0.150969L17.46 6.90097C17.5653 7.00644 17.6245 7.14941 17.6245 7.29847C17.6245 7.44753 17.5653 7.5905 17.46 7.69597Z" fill="black"/>
</svg>
